<?xml version="1.0" standalone="no"?>
<!DOCTYPE svg PUBLIC "-//W3C//DTD SVG 20010904//EN"
 "http://www.w3.org/TR/2001/REC-SVG-20010904/DTD/svg10.dtd">
<svg version="1.0" xmlns="http://www.w3.org/2000/svg"
 width="1000.000000pt" height="1000.000000pt" viewBox="0 0 1000.000000 1000.000000"
 preserveAspectRatio="xMidYMid meet">
<metadata>
Created by potrace 1.11, written by Peter Selinger 2001-2013
</metadata>
<g transform="translate(0.000000,1000.000000) scale(0.100000,-0.100000)"
fill="#000000" stroke="none">
<path d="M1150 9960 c0 -39 -1 -40 -35 -40 l-35 0 0 -80 c0 -47 4 -80 10 -80
6 0 10 -33 10 -80 l0 -80 -40 0 -40 0 0 -40 c0 -33 3 -40 20 -40 18 0 20 -7
20 -80 l0 -80 -40 0 -40 0 0 -40 c0 -22 -4 -40 -10 -40 -5 0 -10 -18 -10 -40
0 -22 5 -40 10 -40 6 0 10 18 10 40 l0 40 40 0 40 0 0 -40 c0 -38 -2 -40 -30
-40 -28 0 -30 -2 -30 -40 0 -36 -2 -40 -25 -40 l-25 0 0 -160 0 -160 -25 0
-25 0 0 -120 0 -120 -32 0 -31 0 7 -200 7 -200 -25 0 c-24 0 -26 -4 -26 -40 0
-22 5 -40 10 -40 6 0 10 -18 10 -40 0 -33 -3 -40 -20 -40 -17 0 -20 -7 -20
-40 0 -34 -3 -40 -22 -40 -21 0 -21 -2 -15 -120 l7 -120 -29 0 c-27 0 -29 3
-33 47 -2 25 2 57 9 71 17 32 16 42 -2 42 -21 0 -52 -69 -35 -80 9 -5 14 -53
18 -164 3 -86 9 -156 13 -156 5 0 9 -18 9 -40 0 -38 -2 -40 -30 -40 -28 0 -30
2 -30 40 0 22 -4 40 -10 40 -6 0 -10 -33 -10 -80 0 -73 2 -80 20 -80 18 0 20
-7 20 -80 l0 -80 -40 0 -40 0 0 80 c0 47 -4 80 -10 80 -6 0 -10 -33 -10 -80 0
-47 4 -80 10 -80 6 0 10 -18 10 -39 0 -22 4 -41 9 -43 5 -1 12 -38 16 -80 l7
-78 -31 0 -31 0 0 -200 0 -200 -25 0 c-25 0 -25 -1 -25 -80 l0 -80 -31 0 -31
0 7 -160 7 -160 -26 0 -26 0 0 -120 0 -120 -30 0 c-28 0 -30 -2 -30 -40 0 -38
2 -40 30 -40 28 0 30 -2 30 -40 0 -38 -2 -40 -30 -40 l-30 0 7 -120 6 -120
-31 0 -32 0 0 80 c0 54 -4 80 -12 80 -14 0 -3 -233 12 -238 6 -2 10 -38 10
-83 l0 -79 -30 0 c-28 0 -30 2 -30 40 0 22 -4 40 -10 40 -6 0 -10 -47 -10
-120 0 -113 1 -120 20 -120 17 0 20 -7 20 -40 l0 -40 -40 0 -40 0 0 -40 c0
-22 5 -40 10 -40 6 0 10 -47 10 -120 l0 -120 -25 0 c-22 0 -25 4 -25 40 0 22
-4 40 -10 40 -5 0 -10 -18 -10 -40 0 -22 5 -40 10 -40 6 0 10 -33 10 -80 0
-79 0 -80 -25 -80 l-25 0 0 -160 0 -160 -31 0 -32 0 6 -160 5 -160 -24 0 -24
0 0 -1880 0 -1880 5000 0 5000 0 0 5000 0 5000 -4425 0 -4425 0 0 -40z"/>
<path d="M990 9640 c0 -22 5 -40 10 -40 6 0 10 18 10 40 0 22 -4 40 -10 40 -5
0 -10 -18 -10 -40z"/>
<path d="M883 8920 c0 -25 2 -35 4 -22 2 12 2 32 0 45 -2 12 -4 2 -4 -23z"/>
<path d="M800 8600 c0 -22 5 -40 10 -40 6 0 10 18 10 40 0 22 -4 40 -10 40 -5
0 -10 -18 -10 -40z"/>
<path d="M743 8280 c0 -25 2 -35 4 -22 2 12 2 32 0 45 -2 12 -4 2 -4 -23z"/>
<path d="M793 8280 c0 -25 2 -35 4 -22 2 12 2 32 0 45 -2 12 -4 2 -4 -23z"/>
<path d="M473 7960 c0 -25 2 -35 4 -22 2 12 2 32 0 45 -2 12 -4 2 -4 -23z"/>
<path d="M483 6560 c0 -47 2 -66 4 -42 2 23 2 61 0 85 -2 23 -4 4 -4 -43z"/>
<path d="M400 6360 c0 -22 5 -40 10 -40 6 0 10 18 10 40 0 22 -4 40 -10 40 -5
0 -10 -18 -10 -40z"/>
<path d="M73 5880 c0 -25 2 -35 4 -22 2 12 2 32 0 45 -2 12 -4 2 -4 -23z"/>
<path d="M73 5720 c0 -25 2 -35 4 -22 2 12 2 32 0 45 -2 12 -4 2 -4 -23z"/>
<path d="M93 4600 c0 -25 2 -35 4 -22 2 12 2 32 0 45 -2 12 -4 2 -4 -23z"/>
</g>
</svg>
